<svg xmlns="http://www.w3.org/2000/svg" xmlns:xlink="http://www.w3.org/1999/xlink" width="500" zoomAndPan="magnify" viewBox="0 0 375 374.999991" height="500" preserveAspectRatio="xMidYMid meet" version="1.2"><defs><clipPath id="20e66eb15a"><path d="M 17 46.910156 L 358 46.910156 L 358 328.160156 L 17 328.160156 Z M 17 46.910156 "/></clipPath></defs><g id="e035d3bd20"><g clip-rule="nonzero" clip-path="url(#20e66eb15a)"><path style=" stroke:none;fill-rule:nonzero;fill:#000000;fill-opacity:1;" d="M 341.828125 199.847656 C 340.960938 115.167969 271.828125 46.910156 186.703125 46.910156 C 101.582031 46.910156 32.445312 115.601562 31.582031 200.277344 C 23.371094 206.757812 17.320312 214.96875 17.320312 225.335938 L 17.320312 275.882812 C 17.320312 294.460938 36.765625 305.691406 51.890625 312.171875 L 51.890625 316.925781 C 51.890625 322.972656 58.804688 328.160156 67.011719 328.160156 L 71.332031 328.160156 C 79.542969 328.160156 86.457031 323.40625 86.457031 316.925781 L 86.457031 186.019531 C 86.457031 179.972656 79.542969 174.789062 71.332031 174.789062 L 67.011719 174.789062 C 64.421875 174.789062 61.828125 175.222656 59.667969 176.515625 C 71.765625 116.898438 124.480469 71.964844 187.566406 71.964844 C 250.652344 71.964844 303.371094 116.898438 315.46875 176.515625 C 313.308594 175.652344 310.714844 174.789062 308.125 174.789062 L 303.800781 174.789062 C 295.59375 174.789062 288.679688 179.539062 288.679688 186.019531 L 288.679688 316.925781 C 288.679688 322.972656 295.59375 328.160156 303.800781 328.160156 L 308.125 328.160156 C 316.332031 328.160156 323.246094 323.40625 323.246094 316.925781 L 323.246094 311.742188 C 338.371094 305.261719 357.8125 294.027344 357.8125 275.449219 L 357.8125 224.902344 C 356.519531 214.535156 350.035156 206.328125 341.828125 199.847656 Z M 341.828125 199.847656 "/></g></g></svg>