<svg xmlns="http://www.w3.org/2000/svg" xmlns:xlink="http://www.w3.org/1999/xlink" width="500" zoomAndPan="magnify" viewBox="0 0 375 374.999991" height="500" preserveAspectRatio="xMidYMid meet" version="1.2"><defs><clipPath id="a5da97ac10"><path d="M 23.359375 23.359375 L 351.859375 23.359375 L 351.859375 351.859375 L 23.359375 351.859375 Z M 23.359375 23.359375 "/></clipPath></defs><g id="ba32aba281"><g clip-rule="nonzero" clip-path="url(#a5da97ac10)"><path style=" stroke:none;fill-rule:nonzero;fill:#000000;fill-opacity:1;" d="M 317.960938 87.597656 C 296.085938 59.082031 264.925781 38.25 230.210938 28.945312 C 216.457031 25.253906 202.1875 23.386719 187.804688 23.386719 C 166 23.386719 144.832031 27.570312 124.890625 35.832031 C 91.683594 49.582031 63.5 74.292969 45.535156 105.414062 C 31.03125 130.328125 23.359375 158.730469 23.359375 187.554688 C 23.359375 216.375 31.023438 244.769531 45.636719 269.839844 C 45.820312 270.074219 46 270.332031 46.203125 270.667969 L 46.363281 270.902344 C 65.671875 303.839844 96.082031 329.128906 131.992188 342.109375 C 149.953125 348.59375 168.816406 351.839844 187.683594 351.839844 C 206.546875 351.839844 225.414062 348.59375 243.367188 342.109375 C 279.042969 329.214844 309.328125 304.140625 328.714844 271.382812 L 328.867188 271.054688 C 329.136719 270.550781 329.355469 270.226562 329.609375 269.882812 L 329.804688 269.589844 C 344.253906 244.8125 351.878906 216.441406 351.863281 187.554688 L 351.863281 186.046875 C 351.542969 150.644531 339.503906 115.683594 317.960938 87.597656 Z M 257.9375 225.410156 C 259.246094 212.878906 259.921875 200.140625 259.949219 187.542969 C 259.921875 174.9375 259.246094 162.207031 257.9375 149.699219 L 257.53125 145.820312 L 261.355469 145.089844 C 278.832031 141.742188 295.839844 136.1875 311.90625 128.570312 L 315.828125 126.714844 L 317.597656 130.675781 C 325.640625 148.691406 329.71875 167.828125 329.71875 187.554688 C 329.71875 207.28125 325.640625 226.417969 317.597656 244.433594 L 315.828125 248.398438 L 311.910156 246.542969 C 295.835938 238.9375 278.824219 233.378906 261.359375 230.023438 L 257.53125 229.285156 Z M 73.449219 271.761719 L 70.355469 267.5625 L 75.101562 265.386719 C 88.359375 259.320312 102.328125 254.789062 116.609375 251.910156 L 120.871094 251.050781 L 121.628906 255.332031 C 125.199219 275.546875 131.535156 295.167969 140.464844 313.644531 L 145.230469 323.496094 L 135.066406 319.433594 L 135.070312 319.433594 C 110.46875 309.585938 89.164062 293.101562 73.449219 271.761719 Z M 135.074219 55.757812 L 145.3125 51.589844 L 140.492188 61.535156 C 131.542969 80.003906 125.195312 99.617188 121.625 119.816406 L 120.867188 124.101562 L 116.601562 123.238281 C 102.300781 120.339844 88.339844 115.792969 75.097656 109.730469 L 70.476562 107.617188 L 73.621094 103.074219 L 73.652344 103.023438 C 73.871094 102.679688 74.09375 102.34375 74.339844 102.019531 C 75.242188 100.824219 76.21875 99.679688 77.195312 98.539062 C 77.667969 97.984375 78.140625 97.433594 78.597656 96.878906 C 80.84375 94.183594 83.277344 91.320312 85.867188 88.636719 C 87.339844 87.105469 88.886719 85.691406 90.25 84.441406 L 91.125 83.640625 C 93.578125 81.355469 96.210938 78.941406 99.09375 76.71875 C 100.730469 75.375 102.574219 74.042969 104.199219 72.875 L 104.898438 72.371094 C 107.597656 70.421875 110.453125 68.519531 113.394531 66.703125 C 115.496094 65.410156 117.625 64.171875 119.75 63 C 122.523438 61.546875 125.761719 59.871094 129.039062 58.398438 C 131.015625 57.5 133.027344 56.589844 135.074219 55.757812 Z M 138.941406 153.660156 L 139.335938 149.289062 L 143.691406 149.828125 C 158.222656 151.632812 173.003906 152.589844 187.636719 152.675781 C 202.226562 152.59375 216.984375 151.632812 231.5 149.828125 L 235.84375 149.289062 L 236.25 153.648438 C 237.277344 164.710938 237.796875 176.121094 237.796875 187.558594 C 237.796875 198.792969 237.289062 209.890625 236.25 221.472656 L 235.859375 225.8125 L 231.53125 225.304688 C 216.953125 223.613281 202.273438 222.765625 187.59375 222.765625 C 172.914062 222.765625 158.234375 223.613281 143.652344 225.304688 L 139.328125 225.8125 L 138.9375 221.472656 C 137.894531 209.886719 137.390625 198.792969 137.390625 187.558594 C 137.394531 176.300781 137.898438 165.210938 138.941406 153.660156 Z M 228.183594 127.925781 C 201.363281 130.984375 173.828125 130.984375 147.011719 127.925781 L 142.453125 127.40625 L 143.324219 122.898438 C 152.3125 76.566406 170.101562 45.4375 187.597656 45.4375 C 205.09375 45.4375 222.886719 76.566406 231.867188 122.898438 L 232.742188 127.40625 Z M 147.007812 247.195312 C 173.941406 244.125 201.25 244.121094 228.175781 247.195312 L 232.734375 247.710938 L 231.859375 252.214844 C 222.878906 298.546875 205.089844 329.675781 187.589844 329.675781 C 170.09375 329.675781 152.304688 298.546875 143.320312 252.214844 L 142.445312 247.710938 Z M 229.960938 323.5 L 234.730469 313.644531 C 243.664062 295.167969 250.003906 275.546875 253.566406 255.335938 L 254.320312 251.050781 L 258.582031 251.910156 C 272.851562 254.789062 286.820312 259.324219 300.089844 265.386719 L 304.835938 267.554688 L 301.746094 271.761719 C 286.039062 293.105469 264.730469 309.589844 240.121094 319.4375 Z M 300.054688 109.734375 C 286.792969 115.804688 272.828125 120.347656 258.546875 123.226562 L 254.285156 124.085938 L 253.53125 119.796875 C 249.980469 99.617188 243.65625 80.019531 234.742188 61.546875 L 230 51.722656 L 240.132812 55.761719 L 240.136719 55.765625 C 242.164062 56.570312 244.136719 57.46875 246.125 58.375 C 249.605469 59.945312 252.675781 61.464844 255.519531 63.035156 C 257.601562 64.175781 259.652344 65.386719 261.6875 66.625 C 264.6875 68.464844 267.644531 70.445312 270.484375 72.515625 C 272.5 73.96875 274.316406 75.289062 276.125 76.746094 C 278.582031 78.703125 281.171875 80.964844 284.277344 83.871094 L 285.730469 85.230469 C 286.925781 86.339844 288.117188 87.445312 289.28125 88.6875 C 291.882812 91.355469 294.335938 94.265625 296.832031 97.277344 L 298.074219 98.738281 C 298.972656 99.792969 299.878906 100.855469 300.71875 101.898438 C 301.03125 102.300781 301.261719 102.65625 301.496094 103.03125 L 304.808594 107.558594 Z M 117.253906 149.710938 C 114.578125 174.824219 114.578125 200.289062 117.253906 225.398438 L 117.667969 229.285156 L 113.832031 230.023438 C 96.347656 233.371094 79.339844 238.929688 63.285156 246.535156 L 59.363281 248.398438 L 57.59375 244.4375 C 49.550781 226.421875 45.472656 207.285156 45.472656 187.558594 C 45.472656 167.828125 49.550781 148.691406 57.59375 130.679688 L 59.359375 126.71875 L 63.285156 128.574219 C 79.367188 136.179688 96.375 141.738281 113.835938 145.09375 L 117.667969 145.828125 Z M 117.253906 149.710938 "/></g></g></svg>