<svg xmlns="http://www.w3.org/2000/svg" xmlns:xlink="http://www.w3.org/1999/xlink" width="500" zoomAndPan="magnify" viewBox="0 0 375 374.999991" height="500" preserveAspectRatio="xMidYMid meet" version="1.2"><defs><clipPath id="d00cc16f57"><path d="M 19 18.902344 L 345.902344 18.902344 L 345.902344 345.902344 L 19 345.902344 Z M 19 18.902344 "/></clipPath></defs><g id="9086a7678a"><g clip-rule="nonzero" clip-path="url(#d00cc16f57)"><path style=" stroke:none;fill-rule:nonzero;fill:#000000;fill-opacity:1;" d="M 183.304688 18.902344 C 138.261719 18.902344 132.859375 18.902344 115.742188 19.804688 C 98.625 19.804688 86.015625 23.40625 76.105469 27.011719 C 65.296875 31.515625 56.289062 36.921875 47.28125 45.929688 C 38.269531 54.9375 32.867188 63.945312 28.363281 74.753906 C 23.859375 85.566406 21.15625 97.277344 21.15625 114.390625 C 19.355469 133.308594 19.355469 138.714844 19.355469 182.855469 C 19.355469 227.894531 19.355469 233.300781 20.253906 250.417969 C 20.253906 267.53125 23.859375 280.144531 27.460938 290.050781 C 31.964844 300.863281 37.371094 309.871094 46.378906 318.878906 C 55.386719 327.886719 64.394531 333.292969 75.207031 337.796875 C 86.015625 342.300781 97.726562 345.003906 114.839844 345.003906 C 131.957031 345.003906 138.261719 345.902344 182.402344 345.902344 C 226.542969 345.902344 232.851562 345.902344 249.964844 345.003906 C 267.082031 345.003906 279.691406 341.398438 289.601562 337.796875 C 300.410156 333.292969 309.421875 327.886719 318.429688 318.878906 C 327.4375 309.871094 332.839844 300.863281 337.347656 290.050781 C 340.949219 279.242188 344.550781 267.53125 344.550781 250.417969 C 344.550781 233.300781 345.453125 226.996094 345.453125 182.855469 C 345.453125 137.8125 345.453125 132.40625 344.550781 115.292969 C 344.550781 98.175781 340.949219 85.566406 337.347656 75.65625 C 332.839844 64.847656 327.4375 55.835938 318.429688 46.828125 C 309.421875 37.820312 300.410156 32.417969 289.601562 27.910156 C 278.792969 23.40625 267.082031 20.707031 249.964844 20.707031 C 233.75 18.902344 228.347656 18.902344 183.304688 18.902344 Z M 168.890625 48.632812 C 173.394531 48.632812 177.898438 48.632812 183.304688 48.632812 C 227.445312 48.632812 231.949219 48.632812 249.964844 49.53125 C 266.179688 49.53125 274.289062 53.136719 280.59375 54.9375 C 288.703125 57.640625 294.105469 61.242188 299.511719 67.546875 C 304.917969 72.953125 308.519531 78.359375 312.121094 86.464844 C 313.925781 91.871094 316.625 100.878906 317.527344 117.09375 C 317.527344 134.210938 318.429688 139.613281 318.429688 183.753906 C 318.429688 227.894531 318.429688 232.398438 317.527344 250.417969 C 317.527344 266.632812 313.925781 274.738281 312.121094 281.042969 C 309.421875 289.152344 305.816406 294.554688 299.511719 299.960938 C 294.105469 305.367188 288.703125 308.96875 280.59375 312.574219 C 275.1875 315.277344 266.179688 317.078125 249.964844 317.976562 C 232.851562 317.976562 227.445312 318.878906 183.304688 318.878906 C 139.164062 318.878906 134.660156 318.878906 116.644531 317.976562 C 100.429688 317.976562 92.320312 314.375 86.015625 312.574219 C 77.90625 309.871094 72.503906 306.265625 67.097656 299.960938 C 61.691406 294.554688 58.089844 289.152344 54.488281 281.042969 C 52.683594 275.640625 49.980469 266.632812 49.082031 250.417969 C 49.082031 233.300781 48.179688 227.894531 48.179688 183.753906 C 48.179688 139.613281 48.179688 135.109375 49.082031 117.09375 C 49.082031 100.878906 52.683594 92.769531 54.488281 86.464844 C 57.1875 78.359375 60.792969 72.953125 67.097656 67.546875 C 72.503906 62.144531 77.90625 58.539062 86.015625 54.9375 C 91.421875 52.234375 100.429688 50.433594 116.644531 49.53125 C 131.957031 49.53125 137.363281 49.53125 167.992188 48.632812 Z M 183.304688 99.078125 C 136.460938 99.078125 98.625 136.910156 98.625 183.753906 C 98.625 230.597656 136.460938 268.433594 183.304688 268.433594 C 230.148438 268.433594 267.980469 230.597656 267.980469 183.753906 C 267.980469 136.910156 230.148438 99.078125 183.304688 99.078125 Z M 183.304688 128.804688 C 213.933594 128.804688 238.253906 153.125 238.253906 183.753906 C 238.253906 214.382812 213.933594 238.707031 183.304688 238.707031 C 152.675781 238.707031 128.355469 214.382812 128.355469 183.753906 C 128.355469 153.125 152.675781 128.804688 183.304688 128.804688 Z M 183.304688 128.804688 "/></g></g></svg>