<svg xmlns="http://www.w3.org/2000/svg" xmlns:xlink="http://www.w3.org/1999/xlink" width="500" zoomAndPan="magnify" viewBox="0 0 375 374.999991" height="500" preserveAspectRatio="xMidYMid meet" version="1.2"><defs><clipPath id="629814180d"><path d="M 21.019531 56.8125 L 354 56.8125 L 354 318.5625 L 21.019531 318.5625 Z M 21.019531 56.8125 "/></clipPath></defs><g id="da08dedfa4"><g clip-rule="nonzero" clip-path="url(#629814180d)"><path style=" stroke:none;fill-rule:nonzero;fill:#000000;fill-opacity:1;" d="M 318.222656 56.8125 L 56.8125 56.8125 C 55.644531 56.8125 54.480469 56.871094 53.320312 56.984375 C 52.15625 57.097656 51.003906 57.269531 49.859375 57.496094 C 48.714844 57.726562 47.582031 58.007812 46.464844 58.347656 C 45.347656 58.6875 44.25 59.082031 43.171875 59.527344 C 42.09375 59.976562 41.039062 60.476562 40.007812 61.027344 C 38.980469 61.578125 37.980469 62.179688 37.007812 62.828125 C 36.039062 63.476562 35.101562 64.171875 34.199219 64.914062 C 33.296875 65.65625 32.433594 66.441406 31.605469 67.265625 C 30.78125 68.09375 29.996094 68.957031 29.257812 69.863281 C 28.515625 70.765625 27.820312 71.703125 27.171875 72.675781 C 26.523438 73.648438 25.925781 74.648438 25.375 75.679688 C 24.824219 76.710938 24.324219 77.765625 23.878906 78.847656 C 23.433594 79.925781 23.039062 81.027344 22.699219 82.144531 C 22.363281 83.261719 22.078125 84.394531 21.851562 85.542969 C 21.621094 86.6875 21.453125 87.84375 21.335938 89.007812 C 21.222656 90.171875 21.164062 91.335938 21.164062 92.503906 L 21.164062 282.867188 C 21.164062 284.039062 21.222656 285.203125 21.335938 286.367188 C 21.453125 287.53125 21.621094 288.6875 21.851562 289.832031 C 22.078125 290.980469 22.363281 292.113281 22.699219 293.230469 C 23.039062 294.347656 23.433594 295.449219 23.878906 296.527344 C 24.324219 297.609375 24.824219 298.664062 25.375 299.695312 C 25.925781 300.726562 26.523438 301.726562 27.171875 302.699219 C 27.820312 303.671875 28.515625 304.609375 29.257812 305.511719 C 29.996094 306.417969 30.78125 307.28125 31.605469 308.109375 C 32.433594 308.933594 33.296875 309.71875 34.199219 310.460938 C 35.101562 311.203125 36.039062 311.898438 37.007812 312.546875 C 37.980469 313.195312 38.980469 313.796875 40.007812 314.347656 C 41.039062 314.898438 42.09375 315.398438 43.171875 315.84375 C 44.25 316.292969 45.347656 316.6875 46.464844 317.023438 C 47.582031 317.363281 48.714844 317.648438 49.859375 317.875 C 51.003906 318.105469 52.15625 318.277344 53.320312 318.390625 C 54.480469 318.503906 55.644531 318.5625 56.8125 318.5625 L 318.222656 318.5625 C 319.390625 318.5625 320.558594 318.503906 321.71875 318.390625 C 322.878906 318.277344 324.035156 318.105469 325.179688 317.875 C 326.324219 317.648438 327.457031 317.363281 328.574219 317.023438 C 329.691406 316.6875 330.789062 316.292969 331.867188 315.84375 C 332.945312 315.398438 334 314.898438 335.027344 314.347656 C 336.058594 313.796875 337.058594 313.195312 338.027344 312.546875 C 339 311.898438 339.9375 311.203125 340.839844 310.460938 C 341.742188 309.71875 342.605469 308.933594 343.429688 308.109375 C 344.257812 307.28125 345.039062 306.417969 345.78125 305.511719 C 346.519531 304.609375 347.214844 303.671875 347.863281 302.699219 C 348.511719 301.726562 349.113281 300.726562 349.664062 299.695312 C 350.210938 298.664062 350.710938 297.609375 351.15625 296.527344 C 351.605469 295.449219 351.996094 294.347656 352.335938 293.230469 C 352.675781 292.113281 352.957031 290.980469 353.1875 289.832031 C 353.414062 288.6875 353.585938 287.53125 353.699219 286.367188 C 353.8125 285.203125 353.871094 284.039062 353.871094 282.867188 L 353.871094 92.503906 C 353.871094 91.335938 353.8125 90.171875 353.699219 89.007812 C 353.585938 87.84375 353.414062 86.6875 353.1875 85.542969 C 352.957031 84.394531 352.675781 83.261719 352.335938 82.144531 C 351.996094 81.027344 351.605469 79.925781 351.15625 78.847656 C 350.710938 77.765625 350.210938 76.710938 349.664062 75.679688 C 349.113281 74.648438 348.511719 73.648438 347.863281 72.675781 C 347.214844 71.703125 346.519531 70.765625 345.78125 69.863281 C 345.039062 68.957031 344.257812 68.09375 343.429688 67.265625 C 342.605469 66.441406 341.742188 65.65625 340.839844 64.914062 C 339.9375 64.171875 339 63.476562 338.027344 62.828125 C 337.058594 62.179688 336.058594 61.578125 335.027344 61.027344 C 334 60.476562 332.945312 59.976562 331.867188 59.527344 C 330.789062 59.082031 329.691406 58.6875 328.574219 58.347656 C 327.457031 58.007812 326.324219 57.726562 325.179688 57.496094 C 324.035156 57.269531 322.878906 57.097656 321.71875 56.984375 C 320.558594 56.871094 319.390625 56.8125 318.222656 56.8125 Z M 44.929688 96.074219 L 144.148438 179.359375 L 143.433594 179.359375 L 44.929688 277.992188 Z M 187.519531 184.117188 L 63.46875 80.609375 L 311.570312 80.609375 Z M 160.308594 196.015625 C 160.9375 195.253906 161.449219 194.417969 161.851562 193.515625 L 179.914062 208.628906 C 180.445312 209.070312 181.007812 209.460938 181.605469 209.804688 C 182.203125 210.148438 182.828125 210.4375 183.476562 210.671875 C 184.125 210.90625 184.785156 211.085938 185.464844 211.203125 C 186.144531 211.324219 186.828125 211.382812 187.519531 211.382812 C 188.207031 211.382812 188.890625 211.324219 189.570312 211.203125 C 190.25 211.085938 190.914062 210.90625 191.5625 210.671875 C 192.210938 210.4375 192.832031 210.148438 193.433594 209.804688 C 194.03125 209.460938 194.59375 209.070312 195.125 208.628906 L 213.183594 193.515625 C 213.585938 194.417969 214.101562 195.253906 214.730469 196.015625 L 313.351562 294.765625 L 61.683594 294.765625 Z M 231.601562 179.121094 L 230.890625 179.121094 L 330.105469 96.074219 L 330.105469 277.992188 Z M 231.601562 179.121094 "/></g></g></svg>